<svg width="110" height="19" viewBox="0 0 110 19" fill="none" xmlns="http://www.w3.org/2000/svg">
<g clip-path="url(#clip0_302_156)">
<path d="M33.7834 6.9248V15.0129H31.7559V9.95305L29.9521 15.0129H28.2011L26.3842 9.94027V15.0129H24.3567V6.9248H26.8319L29.0964 12.5596L31.3214 6.9248H33.7834Z" fill="#373F4C"/>
<path d="M40.3793 13.518H37.2327L36.7061 15.0002H34.5732L37.6409 6.91211H39.9844L43.052 15.0002H40.8928L40.3662 13.518H40.3793ZM39.8527 12.0231L38.8126 9.03316L37.7594 12.0231H39.8527Z" fill="#373F4C"/>
<path d="M47.7918 10.8479L51.1754 15.0005H48.7134L45.8696 11.3462V15.0005H43.842V6.86133H45.8696V10.439L48.7397 6.86133H51.1754L47.7918 10.8479Z" fill="#373F4C"/>
<path d="M54.0588 8.43295V10.1323H56.8894V11.6145H54.0588V13.4161H57.2449V14.9878H52.0181V6.86133H57.2449V8.43295H54.0588Z" fill="#373F4C"/>
<path d="M66.9215 7.27005C67.5666 7.62782 68.0801 8.12614 68.4487 8.75223C68.8174 9.3911 69.0017 10.1066 69.0017 10.8988C69.0017 11.691 68.8174 12.4193 68.4356 13.0582C68.0538 13.6971 67.5535 14.1954 66.9083 14.5532C66.2632 14.9109 65.5523 15.0898 64.7623 15.0898C63.9724 15.0898 63.2614 14.9109 62.6163 14.5532C61.9712 14.1954 61.4577 13.6971 61.0891 13.0582C60.7073 12.4193 60.5229 11.7038 60.5229 10.8988C60.5229 10.0939 60.7073 9.37832 61.0891 8.75223C61.4709 8.11336 61.9712 7.62782 62.6163 7.27005C63.2614 6.91228 63.9724 6.7334 64.7623 6.7334C65.5523 6.7334 66.2764 6.91228 66.9215 7.27005ZM63.1824 9.18666C62.7875 9.60831 62.59 10.1705 62.59 10.8988C62.59 11.6271 62.7875 12.1766 63.1824 12.5982C63.5774 13.0199 64.104 13.2371 64.7623 13.2371C65.4206 13.2371 65.9472 13.0199 66.3422 12.5982C66.7372 12.1766 66.9347 11.6144 66.9347 10.8988C66.9347 10.1833 66.7372 9.62109 66.3422 9.19944C65.9472 8.77778 65.4206 8.56057 64.7623 8.56057C64.104 8.56057 63.5642 8.76501 63.1824 9.18666Z" fill="#373F4C"/>
<path d="M72.1616 12.1512V15.0005H70.134V6.86133H73.4255C74.4261 6.86133 75.1765 7.1041 75.7032 7.57686C76.2298 8.0624 76.4799 8.70127 76.4799 9.51903C76.4799 10.0301 76.3614 10.4773 76.1245 10.8734C75.8875 11.2695 75.5452 11.5762 75.0844 11.8062C74.6236 12.0362 74.0706 12.1512 73.4123 12.1512H72.1484H72.1616ZM74.4129 9.53181C74.4129 8.81627 74.0048 8.4585 73.1885 8.4585H72.1616V10.5796H73.1885C74.0048 10.5796 74.4129 10.2346 74.4129 9.53181Z" fill="#373F4C"/>
<path d="M79.508 6.86133V15.0005H77.4805V6.86133H79.508Z" fill="#373F4C"/>
<path d="M88.3554 15.0005H86.3279L82.9311 10.0046V15.0005H80.9036V6.86133H82.9311L86.3279 11.9084V6.86133H88.3554V15.0005Z" fill="#373F4C"/>
<path d="M91.7917 6.86133V15.0005H89.7642V6.86133H91.7917Z" fill="#373F4C"/>
<path d="M99.3226 7.27005C99.9678 7.62782 100.481 8.12614 100.85 8.75223C101.219 9.3911 101.403 10.1066 101.403 10.8988C101.403 11.691 101.218 12.4193 100.837 13.0582C100.455 13.6971 99.9546 14.1954 99.3095 14.5532C98.6643 14.9109 97.9534 15.0898 97.1635 15.0898C96.3735 15.0898 95.6625 14.9109 95.0174 14.5532C94.3723 14.1954 93.8588 13.6971 93.4902 13.0582C93.1084 12.4193 92.9241 11.7038 92.9241 10.8988C92.9241 10.0939 93.1084 9.37832 93.4902 8.75223C93.872 8.11336 94.3723 7.62782 95.0174 7.27005C95.6625 6.91228 96.3735 6.7334 97.1635 6.7334C97.9534 6.7334 98.6775 6.91228 99.3226 7.27005ZM95.5836 9.18666C95.1886 9.60831 94.9911 10.1705 94.9911 10.8988C94.9911 11.6271 95.1886 12.1766 95.5836 12.5982C95.9785 13.0199 96.5052 13.2371 97.1635 13.2371C97.8217 13.2371 98.3484 13.0199 98.7433 12.5982C99.1383 12.1766 99.3358 11.6144 99.3358 10.8988C99.3358 10.1833 99.1383 9.62109 98.7433 9.19944C98.3484 8.77778 97.8217 8.56057 97.1635 8.56057C96.5052 8.56057 95.9654 8.76501 95.5836 9.18666Z" fill="#373F4C"/>
<path d="M110 15.0005H107.972L104.576 10.0046V15.0005H102.548V6.86133H104.576L107.972 11.9084V6.86133H110V15.0005Z" fill="#373F4C"/>
<path d="M1.9222 9.49369C1.9222 5.28993 5.45063 1.86558 9.78217 1.86558C12.0993 1.86558 14.1795 2.83667 15.6146 4.38273L15.6409 4.35718L17.1813 3.29665C15.3908 1.27782 12.7313 -0.0126953 9.78217 -0.0126953C4.3842 8.20924e-05 0 4.25496 0 9.49369C0 10.5031 0.157989 11.4742 0.460802 12.3814L2.21185 11.5636C2.01436 10.8992 1.90904 10.2092 1.90904 9.49369H1.9222Z" fill="#373F4C"/>
<path d="M17.8527 7.32183L17.4182 7.6796C17.563 8.26736 17.6552 8.8679 17.6552 9.49399C17.6552 13.6978 14.1268 17.1221 9.79524 17.1221C8.83414 17.1221 7.91253 16.956 7.05676 16.6366L5.70068 18.106C6.95143 18.6682 8.33384 18.9748 9.79524 18.9748C15.1932 18.9748 19.5774 14.72 19.5774 9.48122C19.5774 8.36958 19.3799 7.30906 19.0113 6.3252L17.8527 7.30906V7.32183Z" fill="#373F4C"/>
<path d="M18.3926 4.98307L23.5799 0.625977L18.0634 4.43364L16.4967 5.51972L3.69958 14.3234C3.40994 13.9911 3.15979 13.6206 2.93597 13.2373L1.26392 14.1572C1.9222 15.2944 2.81748 16.2783 3.8839 17.0705L3.94973 17.1216L16.8917 6.24803L18.3926 4.98307Z" fill="#373F4C"/>
</g>
<defs>
<clipPath id="clip0_302_156">
<rect width="110" height="19" fill="white"/>
</clipPath>
</defs>
</svg>
